<?xml version="1.0" standalone="no"?><!DOCTYPE svg PUBLIC "-//W3C//DTD SVG 1.1//EN" "http://www.w3.org/Graphics/SVG/1.1/DTD/svg11.dtd"><svg t="1572925000189" class="icon" viewBox="0 0 1040 1024" version="1.1" xmlns="http://www.w3.org/2000/svg" p-id="821" xmlns:xlink="http://www.w3.org/1999/xlink" width="203.125" height="200"><defs><style type="text/css"></style></defs><path d="M350.88 484.528h-108.192c-76.704 0-139.648-62.784-139.648-139.328v-109.872C103.04 158.8 165.984 96 242.688 96h108.176c76.72 0 139.664 62.8 139.664 139.328v107.92c1.952 78.496-60.976 141.28-139.664 141.28z m444.512 0H687.2c-76.72 0-139.648-62.784-139.648-139.328v-109.872C547.568 158.8 610.496 96 687.2 96h108.16c76.72 0 139.664 62.8 139.664 139.328v107.92c0 78.496-62.944 141.28-139.648 141.28zM350.864 928h-108.16c-76.72 0-139.664-62.784-139.664-139.312v-107.92c0-76.528 62.944-139.328 139.648-139.328h108.176c76.72 0 139.664 62.8 139.664 139.328v107.92C492.48 865.216 429.552 928 350.864 928z" fill="#FFBD27" p-id="822"></path><path d="M886.48 634.176H597.568c-16.288 0-30.528-13.568-30.528-29.088 0-15.52 14.24-29.088 30.528-29.088h290.944c16.288 0 30.528 13.584 30.528 29.088 0 15.52-16.272 29.088-32.56 29.088z m-48.832 129.952H597.568c-16.288 0-30.528-13.584-30.528-29.104s14.24-29.088 30.528-29.088h240.08c16.288 0 30.528 13.584 30.528 29.088 0 15.52-14.24 29.104-30.528 29.104zM717.6 896h-120.032c-16.288 0-30.528-13.568-30.528-29.088 0-15.52 14.24-29.088 30.528-29.088h120.032c16.288 0 30.528 13.568 30.528 29.088 0 15.52-14.24 29.088-30.528 29.088z" fill="#333333" p-id="823"></path></svg>