<?xml version="1.0" standalone="no"?><!DOCTYPE svg PUBLIC "-//W3C//DTD SVG 1.1//EN" "http://www.w3.org/Graphics/SVG/1.1/DTD/svg11.dtd"><svg t="1572924964510" class="icon" viewBox="0 0 1024 1024" version="1.1" xmlns="http://www.w3.org/2000/svg" p-id="1931" xmlns:xlink="http://www.w3.org/1999/xlink" width="200" height="200"><defs><style type="text/css"></style></defs><path d="M512 512a225 225 0 1 0 0-450 225 225 0 0 0 0 450z m0-65.45454521a159.54545479 159.54545479 0 1 1 0-319.09090958 159.54545479 159.54545479 0 0 1 0 319.09090958zM266.54545479 552.90909131h490.90909042a204.54545479 204.54545479 0 0 1 204.54545479 204.5454539v81.81818174a122.72727305 122.72727305 0 0 1-122.72727305 122.72727305H184.72727305a122.72727305 122.72727305 0 0 1-122.72727305-122.72727305v-81.81818174a204.54545479 204.54545479 0 0 1 204.54545479-204.5454539z m0 65.45454522A139.09090869 139.09090869 0 0 0 127.45454521 757.45454521v81.81818174A57.27272695 57.27272695 0 0 0 184.72727305 896.54545479h654.5454539a57.27272695 57.27272695 0 0 0 57.27272784-57.27272784v-81.81818174a139.09090869 139.09090869 0 0 0-139.09090958-139.09090868H266.54545479z" p-id="1932"></path></svg>