<?xml version="1.0" standalone="no"?><!DOCTYPE svg PUBLIC "-//W3C//DTD SVG 1.1//EN" "http://www.w3.org/Graphics/SVG/1.1/DTD/svg11.dtd"><svg t="1572925004921" class="icon" viewBox="0 0 1040 1024" version="1.1" xmlns="http://www.w3.org/2000/svg" p-id="940" xmlns:xlink="http://www.w3.org/1999/xlink" width="203.125" height="200"><defs><style type="text/css"></style></defs><path d="M114 172.768C91.472 172.768 75.52 156.88 75.52 134.4c0-21.248 14.24-36.768 35.552-38.288L114 96h60.064l3.248 0.096a146.448 146.448 0 0 1 37.088 7.28l2.64 1.28c4.976 3.328 8.848 8.528 12.64 16.032l1.28 2.784c4.736 10.992 15.744 41.232 22.832 60.112l4.192 10.944 626.72 0.032 4.64 0.368c41.92 0 79.824 34.288 82.08 73.232l0.096 3.2v5.44l-0.16 1.84-54.88 328.496c-12.112 42.24-42.72 66.288-88.16 67.84l-4.48 0.064H334.8l2.528 13.312 1.28 6.272 4.704 21.136 0.272 2.448v0.784l2.16 2.144c1.216 1.216 5.744 2.128 12.176 2.176H867.52c22.528 0 38.48 15.904 38.48 38.4 0 21.248-14.256 36.768-35.568 38.288l-2.928 0.096H359.68c-33.84 0-50.896-8.752-75.488-32.576l-5.232-5.168-0.848-2.512-0.848-2.112-3.76-10.432c-2.256-6.4-4.736-13.872-6.016-18.864l-0.656-2.928-92.88-551.2-0.128-1.52h-59.84z" fill="#FFBD27" p-id="941"></path><path d="M824 801.808a62.944 62.944 0 1 0 0 125.92 62.944 62.944 0 0 0 0-125.952v0.032zM369.92 801.808a62.944 62.944 0 1 0 0 125.92 62.944 62.944 0 0 0 0-125.952v0.032z" fill="#333333" p-id="942"></path></svg>