<?xml version="1.0" standalone="no"?><!DOCTYPE svg PUBLIC "-//W3C//DTD SVG 1.1//EN" "http://www.w3.org/Graphics/SVG/1.1/DTD/svg11.dtd"><svg t="1572924960009" class="icon" viewBox="0 0 1024 1024" version="1.1" xmlns="http://www.w3.org/2000/svg" p-id="1811" xmlns:xlink="http://www.w3.org/1999/xlink" width="200" height="200"><defs><style type="text/css"></style></defs><path d="M94.0243475 136.0556525c18.11478281 0 33.68347781 12.8556525 37.02260906 30.67826063l94.95652125 502.41391312a116.86956563 116.86956563 0 0 0 114.82434844 95.16521719h425.98956469a116.86956563 116.86956563 0 0 0 113.98956562-91.15826063l71.20695657-315.67304344a116.86956563 116.86956563 0 0 0-113.98956563-142.58086968H339.07478281a33.39130406 33.39130406 0 1 0 0 66.78260812h498.94956469a50.08695656 50.08695656 0 0 1 48.83478281 61.10608781l-71.20695656 315.67304344a50.08695656 50.08695656 0 0 1-48.83478281 39.06782531H340.82782625a50.08695656 50.08695656 0 0 1-49.21043531-40.77913031L196.66086969 154.2956525A104.47304344 104.47304344 0 0 0 94.0243475 69.27304344a33.39130406 33.39130406 0 0 0 0 66.78260906z" p-id="1812"></path><path d="M382.0243475 924.63304344m-65.44695656 0a65.44695656 65.44695656 0 1 0 130.89391312 0 65.44695656 65.44695656 0 1 0-130.89391312 0Z" p-id="1813"></path><path d="M687.51304344 924.63304344m-65.44695656 0a65.44695656 65.44695656 0 1 0 130.89391312 0 65.44695656 65.44695656 0 1 0-130.89391313 0Z" p-id="1814"></path></svg>