<?xml version="1.0" standalone="no"?><!DOCTYPE svg PUBLIC "-//W3C//DTD SVG 1.1//EN" "http://www.w3.org/Graphics/SVG/1.1/DTD/svg11.dtd"><svg t="1572925007877" class="icon" viewBox="0 0 1024 1024" version="1.1" xmlns="http://www.w3.org/2000/svg" p-id="1059" xmlns:xlink="http://www.w3.org/1999/xlink" width="200" height="200"><defs><style type="text/css"></style></defs><path d="M328.592 577.44h353.392v333.92H328.592z" fill="#333333" p-id="1060"></path><path d="M282.352 404.128l189.568-193.472a46.848 46.848 0 0 1 67.024 0l190.272 194.208 198.88 202.992a3.904 3.904 0 0 0 6.368-1.152 151.296 151.296 0 0 0 12.4-60.128c0-39.84-15.168-77.184-42.72-105.312L608.608 139.52a144.176 144.176 0 0 0-206.48 0L106.736 441.152A149.408 149.408 0 0 0 64 546.464c0 21.024 4.304 41.52 12.4 60.144 1.12 2.512 4.4 3.136 6.352 1.152l199.6-203.632z" fill="#333333" p-id="1061"></path><path d="M198.384 562.464c-5.312 5.648-8.256 13.28-8.256 21.232v241.28c0 56.784 43.232 102.8 96.592 102.8h101.52c10.224 0 18.56-8.784 18.56-19.76V640.384c0-11.92 13.872-17.264 23.792-17.264h149.68c11.392 0 23.776 6.592 23.776 17.264V908c0 10.88 8.256 19.76 18.56 19.76h101.536c53.36 0 96.592-46.128 96.592-102.8V583.68c0-7.952-2.944-15.584-8.256-21.232l-295.312-314.08a15.968 15.968 0 0 0-23.68 0L198.4 562.48z" fill="#FFBD27" p-id="1062"></path></svg>